# xmcd
#
# Track frame offsets:
#	150
#	15832
#	61032
#	115180
#	163087
#	174077
#
# Disc length: 2530 seconds
#
# Revision: 1
# Processed by: cddbd v1.5.1PL0 Copyright (c) Steve Scherf et al.
# Submitted via: CDex 1.50Beta5
#
DISCID=3609e006
DTITLE=恵 - メタルエンジェル3
DYEAR=1997
DGENRE=Game
TTITLE0=恵/しあわせですか?
TTITLE1=乙女の祈り
TTITLE2=試される時
TTITLE3=美神魔境は永遠に
TTITLE4=八木橋敬也/輝く季節
TTITLE5=しあわせですか?
EXTD=
EXTT0=
EXTT1=
EXTT2=
EXTT3=
EXTT4=
EXTT5=
PLAYORDER=
